<?xml version="1.0"?>
<svg version="1.1" xmlns="http://www.w3.org/2000/svg" width="400" height="52" style=""><path fill="#" d="M45.058,32.536q-1.406,0.57-2.413,0.57t-1.007-0.418q0-0.266,1.121-0.304t1.615-0.266q1.444-0.76,1.444-2.242q0-0.76-0.418-1.596q-1.216-2.166-5.89-2.166q-2.698,0-5.396,0.817t-4.522,2.508t-1.824,3.135q0,2.204,4.37,3.23l4.484,0.836q2.698,0.494,4.028,1.368q1.748,1.064,1.748,3.04q0,0.798-0.266,1.71q-1.216,4.104-6.27,6.27q-4.218,1.862-9.956,1.862q-1.634,0-2.85-0.152q1.216,0.684,3.192,1.178q0.152,0.038,0.152,0.152q0,0.342-0.798,0.342q-1.558,0-3.876-1.862q-3.154-0.494-4.712-1.748q-0.988-0.798-1.824-2.356t-0.836-2.812t0.494-2.09q1.14-2.014,2.888-2.014q1.33,0,1.558,2.242q0.532,4.332,0.722,4.94q0.57,1.862,1.938,3.154q1.596,0.342,3.458,0.342q4.104,0,8.056-1.634t5.7-4.636q0.722-1.178,0.722-2.09q0-1.786-3.154-2.774l-6.688-1.52q-2.052-0.494-3.287-1.634t-1.235-2.622q0-2.28,2.85-4.56q2.166-1.748,5.301-2.717t6.156-0.969t4.997,0.874q2.546,1.178,2.546,3.439t-2.318,3.173z M20.586,49.484q-2.204-2.432-2.812-6.65q-0.342-2.394-0.646-2.394t-0.57,0.171t-0.532,0.741t-0.266,1.482q0,2.926,2.052,5.016q1.026,1.064,2.774,1.634z M57.71846,37.438l0.532-0.114q0.418,0,0.798,0.342t0.38,0.532t-2.356,3.667t-2.356,4.845q0,0.114,0.038,0.228q0.19,0.874,0.836,0.874q1.976,0,7.22-6.536q0.114-0.152,0.266-0.152t0.152,0.285t-0.342,0.741q-4.864,6.498-7.41,6.498q-0.342,0-0.646-0.114q-1.672-0.646-1.672-2.508q0-0.646,0.152-1.292l-2.356,2.28q-2.242,1.976-3.249,1.976t-1.919-0.646q-1.026-0.76-1.026-2.014q0-2.774,3.876-6.631t7.106-3.857q1.254,0,1.672,0.874q0.114,0.304,0.19,0.513t0.114,0.209z M46.35646,46.786q0,1.368,0.95,1.368q2.204,0,6.004-4.826l4.028-5.548q-0.304-0.532-0.988-0.532q-2.318,0-6.156,3.591t-3.838,5.947z M65.17292,48.04q1.254,0,3.23-1.33t3.838-3.61q0.456-0.608,0.722-0.608t0.266,0.228t-1.558,1.976q-3.8,4.18-6.346,4.18q-1.254,0-2.128-0.589t-0.874-1.824t0.646-2.869q1.102-2.584,3.534-6.498q4.446-7.22,6.308-7.22q0.38,0,0.779,0.285t0.437,0.627q-0.874,1.178-3.363,4.522t-3.439,4.807t-1.425,2.185t-0.703,1.121t-0.532,1.045q-0.646,1.292-0.646,2.432t1.254,1.14z M91.51338,48.344q-2.584,0-2.584-2.394q0-1.368,1.216-3.743t2.546-4.009q-2.356,1.14-5.434,4.123t-4.294,6.251q-0.19,0.304-0.646,0.304q-0.912,0-0.912-1.026q0.38-2.09,1.71-4.788q0.418-0.874,2.47-5.092q-2.964,1.938-5.035,4.161t-3.838,4.465t-1.995,2.242q-0.494,0-0.855-0.456t-0.361-0.912q0-0.684,1.976-5.016l-2.28,2.394q-0.836,0.836-1.045,0.836t-0.209-0.247t0.304-0.551q1.406-1.406,2.508-2.812t3.648-5.016q0.418-0.57,1.178-0.57t0.76,0.722q0,0.266-2.014,3.705t-2.242,4.313q1.558-1.71,4.674-4.598q4.674-4.332,6.156-4.332q0.456,0,0.836,0.266t0.38,0.589t-1.482,2.869q-1.444,2.622-1.596,3.116q4.218-3.534,4.218-3.572q3.572-2.774,5.13-2.774q0.456,0,0.855,0.285t0.399,0.665q0,0.076-2.47,3.211t-2.774,5.149q-0.076,0.684,0.266,1.026t1.235,0.342t2.622-1.235t3.515-3.325q0.684-0.76,0.931-0.76t0.247,0.19q0,0.266-0.342,0.608q-1.862,2.242-4.009,3.819t-3.363,1.577z M111.62184,37.438l0.532-0.114q0.418,0,0.798,0.342t0.38,0.532t-2.356,3.667t-2.356,4.845q0,0.114,0.038,0.228q0.19,0.874,0.836,0.874q1.976,0,7.22-6.536q0.114-0.152,0.266-0.152t0.152,0.285t-0.342,0.741q-4.864,6.498-7.41,6.498q-0.342,0-0.646-0.114q-1.672-0.646-1.672-2.508q0-0.646,0.152-1.292l-2.356,2.28q-2.242,1.976-3.249,1.976t-1.919-0.646q-1.026-0.76-1.026-2.014q0-2.774,3.876-6.631t7.106-3.857q1.254,0,1.672,0.874q0.114,0.304,0.19,0.513t0.114,0.209z M100.25984,46.786q0,1.368,0.95,1.368q2.204,0,6.004-4.826l4.028-5.548q-0.304-0.532-0.988-0.532q-2.318,0-6.156,3.591t-3.838,5.947z M122.4583,36.792q1.026,0,1.026,0.798q0,0.228-0.114,0.456q-3.42,4.75-4.104,7.182q8.854-8.854,10.754-8.854q0.19-0.038,0.342-0.038q1.064,0,1.064,0.95q0,0.19-0.076,0.38t-1.52,2.052q-1.672,1.976-2.831,3.8t-1.159,3.04t0.532,1.216q1.672,0,5.814-4.598q0.076-0.076,0.266-0.342q0.57-0.684,0.684-0.684t0.114,0.38t-0.532,0.988q-4.712,5.358-6.688,5.358q-1.862,0-1.862-2.052t1.52-4.712l2.432-3.952q-2.584,1.9-4.598,4.161t-3.667,4.389t-1.919,2.128q-0.57,0-0.893-0.475t-0.323-1.178t0.494-1.881t1.254-2.85l-2.28,2.394q-0.836,0.836-1.045,0.836t-0.209-0.247t0.304-0.551q1.406-1.406,2.432-2.698q0.988-1.292,4.066-4.94q0.342-0.456,0.722-0.456z M172.59322,32.536q-1.406,0.57-2.413,0.57t-1.007-0.418q0-0.266,1.121-0.304t1.615-0.266q1.444-0.76,1.444-2.242q0-0.76-0.418-1.596q-1.216-2.166-5.89-2.166q-2.698,0-5.396,0.817t-4.522,2.508t-1.824,3.135q0,2.204,4.37,3.23l4.484,0.836q2.698,0.494,4.028,1.368q1.748,1.064,1.748,3.04q0,0.798-0.266,1.71q-1.216,4.104-6.27,6.27q-4.218,1.862-9.956,1.862q-1.634,0-2.85-0.152q1.216,0.684,3.192,1.178q0.152,0.038,0.152,0.152q0,0.342-0.798,0.342q-1.558,0-3.876-1.862q-3.154-0.494-4.712-1.748q-0.988-0.798-1.824-2.356t-0.836-2.812t0.494-2.09q1.14-2.014,2.888-2.014q1.33,0,1.558,2.242q0.532,4.332,0.722,4.94q0.57,1.862,1.938,3.154q1.596,0.342,3.458,0.342q4.104,0,8.056-1.634t5.7-4.636q0.722-1.178,0.722-2.09q0-1.786-3.154-2.774l-6.688-1.52q-2.052-0.494-3.287-1.634t-1.235-2.622q0-2.28,2.85-4.56q2.166-1.748,5.301-2.717t6.156-0.969t4.997,0.874q2.546,1.178,2.546,3.439t-2.318,3.173z M148.12122,49.484q-2.204-2.432-2.812-6.65q-0.342-2.394-0.646-2.394t-0.57,0.171t-0.532,0.741t-0.266,1.482q0,2.926,2.052,5.016q1.026,1.064,2.774,1.634z M181.64368,48.648q-2.242,0-2.242-2.622q0-1.482,1.045-3.287t2.565-4.237q-4.864,2.432-8.816,7.182q-2.204,3.306-2.584,3.306q-1.102,0-1.102-0.646q0-0.342,0.456-1.216q3.686-6.574,5.586-9.614q4.522-7.258,6.384-7.866q0.076-0.038,0.152-0.038q0.494,0,0.684,0.798q-0.114,0.798-3.952,5.776q-3.99,5.054-4.522,6.612q1.406-1.026,4.902-3.458q3.762-2.622,4.978-2.622t1.216,0.95q0,0.152-0.019,0.209t-2.641,3.591t-2.622,5.206q0,0.874,0.646,0.874q2.052-0.076,6.156-4.94q0.342-0.342,0.513-0.342t0.171,0.228q0,0.76-3.762,4.104q-2.356,2.052-3.192,2.052z M190.54214,49.294q-0.418,0-0.76-0.114q-2.432-0.684-2.432-2.736q0-2.66,3.344-6.156t6.004-3.496q0.874,0,1.425,0.475t0.551,1.159q0,2.128-3.211,4.066t-5.225,1.938q-0.304,0-0.532-0.076q-0.57,1.026-0.57,2.166q0,1.976,1.881,1.976t4.883-2.546q2.318-1.862,3.952-3.952q0.342-0.456,0.589-0.456t0.247,0.228t-0.304,0.646q-2.052,2.698-4.94,4.788t-4.902,2.09z M197.72414,38.35q0-0.456-0.969-0.456t-2.755,1.482q-2.394,1.976-3.724,4.142q0.228,0.076,0.494,0.076q1.444,0,3.857-1.539t3.021-3.363q0.076-0.19,0.076-0.342z M207.8006,48.99q-2.85,0-2.85-3.154q0-1.596,0.836-3.496t1.824-3.192q-0.19,0.038-0.494,0.038q-0.912,0-1.52-1.292l-2.812,3.648q-2.356,2.926-2.736,2.926q-0.19,0-0.19-0.152q0-0.38,0.646-1.102q3.306-3.838,4.674-6.498q0.874-3.306,2.204-3.306q0.874,0,0.874,0.76t-0.95,1.938l-0.912,1.216q0,0.798,1.178,0.798q0.684,0,1.52-0.494l0.988-0.608q0.076-0.038,0.38-0.038t0.646,0.38t0.228,0.684l-2.622,3.306q-2.432,3.116-2.432,4.921t1.672,1.805q1.748,0,4.294-1.862q1.52-1.102,2.774-2.47q1.178-1.368,1.292-1.368q0.266,0,0.266,0.285t-0.342,0.665l-1.216,1.368q-1.026,1.064-2.28,2.052q-3.002,2.242-4.94,2.242z M226.02806,33.657q0.513,0.361,0.513,0.855t-0.475,0.855t-1.045,0.361t-1.045-0.418t-0.475-0.95q0-1.064,1.444-1.064q0.57,0,1.083,0.361z M218.06706,49.218q-1.938,0-1.938-2.508q0-2.052,2.242-5.681t3.61-3.667q0.38,0,0.855,0.304t0.475,0.608q-0.19,0.266-0.456,0.589t-0.57,0.703t-0.836,1.083t-1.026,1.349q-2.85,3.686-2.85,5.073t0.95,1.387q0.798,0,2.166-0.874q3.192-1.976,5.054-4.332q0.684-0.874,0.931-0.874t0.247,0.304t-0.874,1.216t-1.387,1.444t-0.703,0.703t-0.703,0.646t-0.779,0.665t-0.76,0.57t-0.874,0.551t-0.874,0.399q-0.798,0.342-1.9,0.342z M242.46952,30.218q0,1.178-0.684,1.178q-0.19,0-0.38-0.304q-0.342-0.608-1.14-0.608q-1.748,0-3.268,2.508q-0.304,0.494-1.9,3.572l0.456,0q4.142,0,5.51-0.114q0.152,0.038,0.152,0.152q0,0.304-2.698,0.836q-2.546,0.418-4.18,0.722q-1.178,2.432-2.85,5.776q-3.42,6.384-4.522,7.942q-3.306,4.712-6.46,4.712q-1.102,0-1.919-0.931t-0.855-2.071q0.114-0.456,0.342-0.456q0.114,0,0.152,0.266q0.228,0.988,0.76,1.52t1.102,0.532q3.23,0,5.89-3.99q1.52-2.28,4.142-8.208l2.052-4.94q-3.8-0.038-3.8-0.912q0-0.38,0.361-0.646t0.627-0.266l3.572,0.076q3.724-8.284,6.84-8.284q1.178,0,2.394,1.14q0.304,0.304,0.304,0.798z M253.34398,30.218q0,1.178-0.684,1.178q-0.19,0-0.38-0.304q-0.342-0.608-1.14-0.608q-1.748,0-3.268,2.508q-0.304,0.494-1.9,3.572l0.456,0q4.142,0,5.51-0.114q0.152,0.038,0.152,0.152q0,0.304-2.698,0.836q-2.546,0.418-4.18,0.722q-1.178,2.432-2.85,5.776q-3.42,6.384-4.522,7.942q-3.306,4.712-6.46,4.712q-1.102,0-1.919-0.931t-0.855-2.071q0.114-0.456,0.342-0.456q0.114,0,0.152,0.266q0.228,0.988,0.76,1.52t1.102,0.532q3.23,0,5.89-3.99q1.52-2.28,4.142-8.208l2.052-4.94q-3.8-0.038-3.8-0.912q0-0.38,0.361-0.646t0.627-0.266l3.572,0.076q3.724-8.284,6.84-8.284q1.178,0,2.394,1.14q0.304,0.304,0.304,0.798z"/><path fill="#" d=""/></svg>
